<svg width="24" height="24" viewBox="0 0 24 24" fill="none" xmlns="http://www.w3.org/2000/svg">
<g opacity="0.7" clip-path="url(#clip0_5419_193)">
<g opacity="0.7">
<g opacity="0.7">
<path fill-rule="evenodd" clip-rule="evenodd" d="M23.2727 10.3636V21.4545C23.2727 22.468 22.4684 23.2727 21.4545 23.2727H2.54545C1.532 23.2727 0.727273 22.468 0.727273 21.4545V10.3636V2.54545C0.727273 1.532 1.532 0.727273 2.54545 0.727273H21.4545C22.4684 0.727273 23.2727 1.532 23.2727 2.54545V10.3636ZM2.54545 0C1.14182 0 0 1.14182 0 2.54545V21.4545C0 22.8582 1.14182 24 2.54545 24H21.4545C22.8585 24 24 22.8582 24 21.4545V2.54545C24 1.14182 22.8585 0 21.4545 0H2.54545Z" fill="#242221"/>
<path d="M12 17C14.7614 17 17 14.7614 17 12C17 9.23858 14.7614 7 12 7C9.23858 7 7 9.23858 7 12C7 14.7614 9.23858 17 12 17Z" stroke="#242221" stroke-width="0.7"/>
<path d="M18.1696 4.36914C17.374 4.36914 16.7349 5.00827 16.7349 5.80392C16.7349 6.59958 17.374 7.23871 18.1696 7.23871C18.9653 7.23871 19.6044 6.59958 19.6044 5.80392C19.6044 5.00827 18.9653 4.36914 18.1696 4.36914Z" fill="#242221"/>
</g>
</g>
</g>
<defs>
<clipPath id="clip0_5419_193">
<rect width="24" height="24" fill="white"/>
</clipPath>
</defs>
</svg>
